{"title":"Bad Boy Bubby 1993.DVDRip.DivX . NVEE","uid":8338079,"size":1416080405,"categoryP":"video","categoryS":"movies","magnet":"?xt=urn:btih:8088e3aa558916ee257b66af7fce62a8f2115fe2&amp;dn=Bad+Boy+Bubby+1993.DVDRip.DivX+.+NVEE&amp;tr=udp%3A%2F%2Ftracker.openbittorrent.com%3A80&amp;tr=udp%3A%2F%2Fopen.demonii.com%3A1337&amp;tr=udp%3A%2F%2Ftracker.coppersurfer.tk%3A6969&amp;tr=udp%3A%2F%2Fexodus.desync.com%3A6969","seeders":1,"leechers":2,"uploader":".NVEE","files":5,"time":1365024475,"description":" FULL_INFOS\n\n\nSOURCE -- DVD\n\n\nComplete name : Bad Boy Bubby 1993.DVDRip.DivX . NVEE.divx\nFormat : AVI \nFormat/Info : Audio Video Interleave \nFile size : 1.32 GiB \nDuration : 1h 47mn \nOverall bit rate : 1 759 Kbps \n\nVideo \n\nID : 0 \nFormat : MPEG-4 Visual \nFormat settings, BVOP : 1 \nFormat settings, QPel : No \nFormat settings, GMC : No warppoints \nFormat settings, Matrix : Default (H.263) \nMuxing mode : Packed bitstream \nCodec ID : DX50 \nCodec ID/Hint : DivX 5 \nDuration : 1h 47mn \nBit rate : 1 301 Kbps \nWidth : 720 pixels \nHeight : 304 pixels \nDisplay aspect ratio : 2.35:1 \nFrame rate : 25.000 fps \nColor space : YUV \nChroma subsampling : 4:2:0 \nBit depth : 8 bits \nScan type : Progressive \nCompression mode : Lossy \nBits/(Pixel*Frame) : 0.238 \nStream size : 999 MiB (74%) \nTitle : Video  \nWriting library : DivX 6.8.5 (UTC 2009-08-20) \n\nAudio \n\nID : 1 \nFormat : AC-3 \nFormat/Info : Audio Coding 3 \nMode extension : CM (complete main) \nFormat settings, Endianness : Big \nCodec ID : 2000 \nDuration : 1h 47mn \nBit rate mode : Constant \nBit rate : 448 Kbps \nChannel(s) : 6 channels \nChannel positions : Front: L C R, Side: L R, LFE \nSampling rate : 48.0 KHz \nBit depth : 16 bits \nCompression mode : Lossy \nStream size : 344 MiB (25%) \nAlignment : Split accross interleaves \nInterleave, duration : 40 ms (1.00 video frame) \nInterleave, preload duration : 500 ms \nTitle : Audio \n\nSubtitle -- Finnish\n\n\nPLOT \n\nBubby is a 35-year-old man who has never set foot outside his mother's dingy apartment in the back of a printing press in an industrial ares of Adelaide-Australia. In addition to beating and sexually abusing him, she confines him to the apartment, telling him that the air outside is poisonous and warning him that he will die if he tries to leave. Bubby eventually escapes, joins up with a rock band, and embarks on a journey of self-discovery and shocking mayhem.\n\n\nPLEASE SEED !!!\n\n","torrent":{"xt":"urn:btih:8088e3aa558916ee257b66af7fce62a8f2115fe2","amp;dn":"Bad+Boy+Bubby+1993.DVDRip.DivX+.+NVEE","amp;tr":["udp%3A%2F%2Ftracker.openbittorrent.com%3A80","udp%3A%2F%2Fopen.demonii.com%3A1337","udp%3A%2F%2Ftracker.coppersurfer.tk%3A6969","udp%3A%2F%2Fexodus.desync.com%3A6969"],"infoHash":"8088e3aa558916ee257b66af7fce62a8f2115fe2","infoHashBuffer":{"type":"Buffer","data":[128,136,227,170,85,137,22,238,37,123,102,175,127,206,98,168,242,17,95,226]},"announce":[],"urlList":[]}}